<svg width="106" height="21" viewBox="0 0 106 21" xmlns="http://www.w3.org/2000/svg"><g fill-rule="nonzero" fill="none"><path d="M20.005 20.38c-.287 0-.566-.109-.773-.32l-6.523-6.523a1.095 1.095 0 0 1 0-1.546 1.095 1.095 0 0 1 1.546 0l4.652 4.653V1.472a1.094 1.094 0 0 1 2.187 0v17.811c0 .441-.268.841-.675 1.01a.987.987 0 0 1-.414.087M1.865.068c.287-.005.568.099.778.306L9.28 6.782c.433.42.446 1.111.027 1.546a1.095 1.095 0 0 1-1.546.027L3.028 3.784l.265 15.17a1.094 1.094 0 0 1-2.187.038L.796 1.183c-.009-.44.252-.845.656-1.021a.987.987 0 0 1 .413-.094" fill="#00D563"/><path d="M40.398 9.103v6.285h-2.19V9.823c0-1.681-.868-2.62-2.327-2.62-1.41 0-2.59.927-2.59 2.639v5.543h-2.19v-9.94a.416.416 0 0 1 .712-.293l1.46 1.459c.802-1.18 2.046-1.482 3.068-1.482 2.375-.004 4.057 1.637 4.057 3.974zm4.464.43h5.188c-.24-1.557-1.146-2.466-2.538-2.466-1.552 0-2.42 1.003-2.65 2.466zm7.424.844c0 .283-.023.562-.04.815h-7.392c.291 1.795 1.558 2.549 2.976 2.549 1.003 0 2.065-.396 2.891-1.056l1.086 1.557c-1.22 1.044-2.597 1.41-4.113 1.41-2.998 0-5.117-2.09-5.117-5.26 0-3.133 2.036-5.26 4.981-5.26 2.797-.007 4.717 2.124 4.728 5.245zm8.996-3.009h-3.83v4.351c0 1.346.708 1.87 1.587 1.87.68 0 1.421-.302 2.014-.679l.867 1.743c-.804.543-1.818.991-3.07.991-2.265 0-3.589-1.22-3.589-3.883V7.368h-1.995V5.385h1.995V2.357h2.191v3.028h3.83v1.983zm3.767 2.915c0 1.682 1.104 3.099 2.952 3.099 1.765 0 2.952-1.346 2.952-3.1 0-1.752-1.191-3.098-2.952-3.098-1.848 0-2.952 1.406-2.952 3.099zm5.72-3.695v-1.2h2.19v9.303c0 3.14-2.024 5.074-5.365 5.074-1.493 0-3.133-.407-4.185-1.157l.79-1.847c1.016.614 2.173 1.014 3.395 1.014 2.048 0 3.175-1.128 3.175-2.986v-.803c-.75.96-1.878 1.463-3.33 1.463-2.288 0-4.633-1.923-4.633-5.158 0-3.236 2.348-5.158 4.634-5.158 1.447-.008 2.575.505 3.329 1.455zm24.001-1.18l-.52 2.16c-.46-.241-1.126-.365-1.659-.365-1.386 0-2.38.98-2.38 2.684v5.5H88.03v-10h2.16v1.127c.656-.95 1.681-1.388 2.903-1.388.663 0 1.176.083 1.677.283v-.001zM75.828 11.67V5.387h2.194v5.565c0 1.68.868 2.62 2.33 2.62 1.411 0 2.591-.927 2.591-2.64V5.39h2.191v9.942a.418.418 0 0 1-.713.294l-1.459-1.46c-.803 1.18-2.047 1.483-3.07 1.483-2.386 0-4.064-1.641-4.064-3.978v-.001zm20.522 0V5.387h2.19v5.565c0 1.68.869 2.62 2.332 2.62 1.41 0 2.589-.927 2.589-2.64V5.39h2.192v9.942a.418.418 0 0 1-.713.294l-1.46-1.46c-.803 1.18-2.047 1.483-3.068 1.483-2.383 0-4.061-1.641-4.061-3.978l-.001-.001z" fill="currentColor"/></g></svg>